<?xml version="1.0" encoding="utf-8"?>
<!DOCTYPE svg PUBLIC "-//W3C//DTD SVG 1.1 Basic//EN" "http://www.w3.org/Graphics/SVG/1.1/DTD/svg11-basic.dtd">
<svg xmlns="http://www.w3.org/2000/svg" xmlns:xlink="http://www.w3.org/1999/xlink" x="0px" y="0px" width="1920px" height="1080px"
	 viewBox="0 0 1920 1080" xml:space="preserve">
<path fill="#B3B3B3" stroke="#1D1D1B" stroke-width="0.2" stroke-miterlimit="10" d="M50.328,10L13,10c-1.65,0-3,1.35-3,3v4
	c0,1.65,1.35,3,3,3h20c0.414,0,0.789-0.168,1.061-0.439l3.879-5.121C38.211,14.168,38.586,14,39,14h3.209
	c0.441,0,0.816,0.286,0.948,0.682l0,0C43.676,16.594,45.424,18,47.5,18c2.485,0,4.5-2.015,4.5-4.5
	C52,12.086,51.348,10.825,50.328,10z M13,15c-1.105,0-2-0.895-2-2s0.895-2,2-2s2,0.895,2,2S14.105,15,13,15z M21,18.75
	c-0.414,0-0.75-0.336-0.75-0.75c0-0.414,0.336-0.75,0.75-0.75c0.414,0,0.75,0.336,0.75,0.75C21.75,18.414,21.414,18.75,21,18.75z
	 M31,18.75c-0.414,0-0.75-0.336-0.75-0.75c0-0.414,0.336-0.75,0.75-0.75c0.414,0,0.75,0.336,0.75,0.75
	C31.75,18.414,31.414,18.75,31,18.75z M47.5,16c-1.381,0-2.5-1.119-2.5-2.5c0-1.381,1.119-2.5,2.5-2.5c1.381,0,2.5,1.119,2.5,2.5
	C50,14.881,48.881,16,47.5,16z"/>
<rect x="38" y="19" fill="#FF0000" width="12" height="12"/>
</svg>
